<?xml version="1.0" standalone="no"?><!DOCTYPE svg PUBLIC "-//W3C//DTD SVG 1.1//EN" "http://www.w3.org/Graphics/SVG/1.1/DTD/svg11.dtd"><svg t="1528252489078" class="icon" style="" viewBox="0 0 1024 1024" version="1.1" xmlns="http://www.w3.org/2000/svg" p-id="8563" xmlns:xlink="http://www.w3.org/1999/xlink" width="200" height="200"><defs><style type="text/css"></style></defs><path d="M98.1279 112.6349 63.978496 112.6349 63.978496 942.584832l899.108864 0 0-33.284096-864.386-1.7295L98.1279 112.6349zM548.1165 147.2164c0-19.0996-15.4849-34.5815-34.5815-34.5815L409.791488 112.6349c-19.1027 0-34.5846 15.4819-34.5846 34.5815l0 691.62496 172.909568 0L548.116456 147.216384zM340.6254 354.7075c0-19.0996-15.4788-34.5846-34.5774-34.5846L202.303488 320.1229c-19.1027 0-34.5846 15.486-34.5846 34.5846l0 484.133888 172.906496 0L340.625384 354.707456zM755.6004 562.1914c0-19.0996-15.4819-34.5815-34.5774-34.5815L617.278464 527.6099c-19.0996 0-34.5815 15.4819-34.5815 34.5815l0 276.649984 172.9024 0L755.599364 562.19136zM928.51 735.0968 824.766464 735.0968c-19.0996 0-34.5815 15.4819-34.5815 34.5846l0 69.158912 172.9024 0L963.087364 769.682432C963.0874 750.5797 947.6055 735.0968 928.51 735.0968z" p-id="8564"></path></svg>