<?xml version="1.0" standalone="no"?><!DOCTYPE svg PUBLIC "-//W3C//DTD SVG 1.1//EN" "http://www.w3.org/Graphics/SVG/1.1/DTD/svg11.dtd"><svg t="1528421956541" class="icon" style="" viewBox="0 0 1024 1024" version="1.1" xmlns="http://www.w3.org/2000/svg" p-id="12847" xmlns:xlink="http://www.w3.org/1999/xlink" width="200" height="200"><defs><style type="text/css">@font-face { font-family: uc-nexus-iconfont; src: url("chrome-extension://pogijhnlcfmcppgimcaccdkmbedjkmhi/res/font_9qmmi8b8jsxxbt9.woff") format("woff"), url("chrome-extension://pogijhnlcfmcppgimcaccdkmbedjkmhi/res/font_9qmmi8b8jsxxbt9.ttf") format("truetype"); }
</style></defs><path d="M565.21216 902.21568c0 29.27104-23.94624 53.21728-53.21216 53.21728s-53.21216-23.94624-53.21216-53.21728c0-29.26592 23.94624-53.21216 53.21216-53.21216s53.21216 23.94624 53.21216 53.21216z m159.63136-133.05856c0 14.1568-11.0848 26.63936-23.64416 26.63936H322.80064c-12.56448 0-23.64928-12.48256-23.64928-26.63936V183.14752c0-14.15168 11.0848-26.63424 23.64928-26.63424h378.39872c12.55936 0 23.64416 12.48256 23.64416 26.63424v586.0096zM582.94784 98.74944a11.6992 11.6992 0 0 1-11.83232 11.86304H452.87936a11.69408 11.69408 0 0 1-11.8272-11.86304c0-6.67648 5.1712-11.86304 11.8272-11.86304h118.24128a11.69408 11.69408 0 0 1 11.8272 11.86304z m212.84864 15.93856c0-54.31808-42.86976-99.328-94.59712-99.328H322.80064c-51.73248 0-94.59712 45.00992-94.59712 99.328v794.624c0 54.31808 42.86976 99.328 94.59712 99.328h378.39872c51.72736 0 94.59712-45.00992 94.59712-99.328V114.688z" p-id="12848" fill="#8a8a8a"></path></svg>